<svg xmlns="http://www.w3.org/2000/svg" width="82.834" height="12.886" viewBox="0 0 82.834 12.886">
  <g id="Group_319" data-name="Group 319" transform="translate(-364.083 -875)">
    <path id="Icon_awesome-star" data-name="Icon awesome-star" d="M7.616.447,5.928,3.779,2.15,4.315a.8.8,0,0,0-.458,1.374L4.425,8.281l-.646,3.662a.823.823,0,0,0,1.2.848l3.38-1.729,3.38,1.729a.823.823,0,0,0,1.2-.848l-.646-3.662,2.733-2.592a.8.8,0,0,0-.458-1.374l-3.778-.536L9.1.447a.838.838,0,0,0-1.484,0Z" transform="translate(362.642 875.001)" fill="#f7c736"/>
    <path id="Icon_awesome-star-2" data-name="Icon awesome-star" d="M7.616.447,5.928,3.779,2.15,4.315a.8.8,0,0,0-.458,1.374L4.425,8.281l-.646,3.662a.823.823,0,0,0,1.2.848l3.38-1.729,3.38,1.729a.823.823,0,0,0,1.2-.848l-.646-3.662,2.733-2.592a.8.8,0,0,0-.458-1.374l-3.778-.536L9.1.447a.838.838,0,0,0-1.484,0Z" transform="translate(379.642 875.001)" fill="#f7c736"/>
    <path id="Icon_awesome-star-3" data-name="Icon awesome-star" d="M7.616.447,5.928,3.779,2.15,4.315a.8.8,0,0,0-.458,1.374L4.425,8.281l-.646,3.662a.823.823,0,0,0,1.2.848l3.38-1.729,3.38,1.729a.823.823,0,0,0,1.2-.848l-.646-3.662,2.733-2.592a.8.8,0,0,0-.458-1.374l-3.778-.536L9.1.447a.838.838,0,0,0-1.484,0Z" transform="translate(396.642 875.001)" fill="#f7c736"/>
    <path id="Icon_awesome-star-4" data-name="Icon awesome-star" d="M7.616.447,5.928,3.779,2.15,4.315a.8.8,0,0,0-.458,1.374L4.425,8.281l-.646,3.662a.823.823,0,0,0,1.2.848l3.38-1.729,3.38,1.729a.823.823,0,0,0,1.2-.848l-.646-3.662,2.733-2.592a.8.8,0,0,0-.458-1.374l-3.778-.536L9.1.447a.838.838,0,0,0-1.484,0Z" transform="translate(413.642 875.001)" fill="#f7c736"/>
    <path id="Icon_awesome-star-5" data-name="Icon awesome-star" d="M7.616.447,5.928,3.779,2.15,4.315a.8.8,0,0,0-.458,1.374L4.425,8.281l-.646,3.662a.823.823,0,0,0,1.2.848l3.38-1.729,3.38,1.729a.823.823,0,0,0,1.2-.848l-.646-3.662,2.733-2.592a.8.8,0,0,0-.458-1.374l-3.778-.536L9.1.447a.838.838,0,0,0-1.484,0Z" transform="translate(431.642 875.001)" fill="#f7c736"/>
  </g>
</svg>
